<?xml version="1.0" encoding="utf-8"?>
<!-- Generator: Adobe Illustrator 23.0.3, SVG Export Plug-In . SVG Version: 6.00 Build 0)  -->
<svg version="1.1" id="Layer_1" focusable="false" xmlns="http://www.w3.org/2000/svg" xmlns:xlink="http://www.w3.org/1999/xlink"
	 x="0px" y="0px" viewBox="0 0 512 512" style="enable-background:new 0 0 512 512;" xml:space="preserve">
<style type="text/css">
	.st0{fill:#5f6367;}
</style>
<path class="st0" d="M505.1,19.1c-1.2-5.5-6.7-11-12.2-12.2C460.7,0,435.5,0,410.4,0C307.2,0,245.3,55.2,199.1,128H94.8
	c-16.3,0-35.6,11.9-42.9,26.5L2.5,253.3c-1.5,3.4-2.4,7-2.5,10.7c0,13.3,10.8,24,24,24h99.1c4.1-0.6,8.2-1,12.5-1
	c48.7,0,88.2,43,88.2,96c0,0.5,0,1,0,1.4l0.3-0.3V488c0,13.3,10.8,24,24,24c3.7-0.1,7.3-1,10.7-2.5l98.7-49.4
	c14.6-7.3,26.5-26.5,26.5-42.9V312.8c72.6-46.3,128-108.4,128-211.1C512.1,76.5,512.1,51.3,505.1,19.1z M384,168
	c-22.1,0-40-17.9-40-40c0-22.1,17.9-40,40-40c22.1,0,40,17.9,40,40C424,150.1,406.1,168,384,168z"/>
<image style="display:none;overflow:visible;" width="1440" height="1150" xlink:href="1AB012BC.jpg"  transform="matrix(0.4452 0 0 0.4452 512 0)">
</image>
<path class="st0" d="M0,502.6c-0.6-68.8,15-132.3,41.7-156.8c41.7-38.3,95.2-38.6,130-0.7s29.9,91.1-11.8,129.4
	C133,499.2,68.2,509.1,0,502.6z M150.2,364.8c-17.4-18.9-42.6-20.2-61.3-3c-4.5,4.2-19.2,20.5-24.5,81.8c61.5,0,79-13.2,83.6-17.4
	C166.7,409,167.6,383.8,150.2,364.8z"/>
</svg>
